<?xml version="1.0" encoding="UTF-8"?>
<svg width="128px" height="128px" viewBox="0 0 128 128" version="1.1" xmlns="http://www.w3.org/2000/svg" xmlns:xlink="http://www.w3.org/1999/xlink">
    <!-- Generator: Sketch 50.2 (55047) - http://www.bohemiancoding.com/sketch -->
    <title>icon-user</title>
    <desc>Created with Sketch.</desc>
    <defs></defs>
    <g id="icon-user" stroke="none" stroke-width="1" fill="none" fill-rule="evenodd">
        <path d="M106.000306,115.199853 L22.0042965,115.199853 C17.4833944,115.199853 14.1449826,110.739053 15.8501205,106.636653 C23.7616992,87.6670525 42.3483561,76.7998525 63.9990348,76.7998525 C85.6562467,76.7998525 104.242904,87.6670525 112.154482,106.636653 C113.85962,110.739053 110.521208,115.199853 106.000306,115.199853 M37.8666526,38.3998525 C37.8666526,24.2814525 49.5935591,12.7998525 63.9990348,12.7998525 C78.4110437,12.7998525 90.1314171,24.2814525 90.1314171,38.3998525 C90.1314171,52.5182525 78.4110437,63.9998525 63.9990348,63.9998525 C49.5935591,63.9998525 37.8666526,52.5182525 37.8666526,38.3998525 M127.716316,112.870253 C122.966755,91.3726525 108.110496,75.5070525 88.5569411,68.3070525 C98.9184307,60.1342525 104.961544,46.9182525 102.740292,32.4478525 C100.166252,15.6606525 85.9110374,2.22705251 68.7028636,0.26865251 C44.9485282,-2.43854749 24.8004614,15.6734525 24.8004614,38.3998525 C24.8004614,50.4958525 30.5234531,61.2734525 39.4476617,68.3070525 C19.8875736,75.5070525 5.03784733,91.3726525 0.281753757,112.870253 C-1.44298347,120.684653 4.98558257,127.999853 13.1454189,127.999853 L114.852651,127.999853 C123.01902,127.999853 129.447586,120.684653 127.716316,112.870253" id="profile_round-[#1342]" fill="#0067C5"></path>
    </g>
</svg>