<?xml version="1.0" encoding="UTF-8"?>
<svg width="25px" height="32px" viewBox="0 0 25 32" version="1.1" xmlns="http://www.w3.org/2000/svg" xmlns:xlink="http://www.w3.org/1999/xlink">
    <!-- Generator: Sketch 50.2 (55047) - http://www.bohemiancoding.com/sketch -->
    <title>PDF</title>
    <desc>Created with Sketch.</desc>
    <defs></defs>
    <g id="Page-1" stroke="none" stroke-width="1" fill="none" fill-rule="evenodd">
        <g id="Screen-2" transform="translate(-1232.000000, -455.000000)" fill-rule="nonzero">
            <g id="Group-3" transform="translate(1225.000000, 449.000000)">
                <g id="PDF" transform="translate(7.000000, 6.000000)">
                    <path d="M17.7238372,0 L0.850581395,0 C0.380813953,0 0,0.374285714 0,1.10057143 L0,31.4285714 C0,31.6257143 0.380813953,32 0.850581395,32 L24.1494186,32 C24.619186,32 25,31.6257143 25,31.4285714 L25,7.416 C25,7.01828571 24.9459302,6.89028571 24.8505814,6.796 L18.0854651,0.146857143 C17.9895349,0.0531428571 17.8593023,0 17.7238372,0 Z" id="Shape" fill="#FFFFFF" transform="translate(12.500000, 16.000000) scale(-1, 1) translate(-12.500000, -16.000000) "></path>
                    <polygon id="Shape" fill="#D7D7D7" transform="translate(3.385429, 3.385429) scale(-1, 1) translate(-3.385429, -3.385429) " points="0 0 0 6.77085714 6.77085714 6.77085714"></polygon>
                    <path d="M7.19758292,19.0948571 C6.99872577,19.0948571 6.80786863,19.0302857 6.64501149,18.9085714 C6.05015435,18.4622857 5.97015435,17.9657143 6.00786863,17.6274286 C6.11186863,16.6971429 7.26215435,15.7234286 9.42786863,14.7314286 C10.2872972,12.848 11.1050115,10.5274286 11.5924401,8.58857143 C11.0221543,7.34742857 10.4678686,5.73714286 10.8718686,4.79257143 C11.0135829,4.46171429 11.1901543,4.208 11.5198686,4.09828571 C11.6501543,4.05485714 11.9792972,4 12.1004401,4 C12.3884401,4 12.6415829,4.37085714 12.8210115,4.59942857 C12.9895829,4.81428571 13.3718686,5.26971429 12.6078686,8.48628571 C13.3781543,10.0771429 14.4695829,11.6977143 15.5152972,12.8074286 C16.2644401,12.672 16.9090115,12.6028571 17.4341543,12.6028571 C18.3290115,12.6028571 18.8712972,12.8114286 19.0924401,13.2411429 C19.2752972,13.5965714 19.2004401,14.012 18.8695829,14.4754286 C18.5512972,14.9205714 18.1124401,15.156 17.6010115,15.156 C16.9061543,15.156 16.0970115,14.7171429 15.1947258,13.8502857 C13.5735829,14.1891429 11.6804401,14.7937143 10.1501543,15.4628571 C9.67244006,16.4765714 9.21472577,17.2931429 8.78844006,17.892 C8.20272577,18.712 7.69758292,19.0948571 7.19758292,19.0948571 Z M8.71872577,16.1657143 C7.49758292,16.852 6.99986863,17.416 6.96386863,17.7337143 C6.95815435,17.7862857 6.94272577,17.9245714 7.21015435,18.1291429 C7.2952972,18.1022857 7.79244006,17.8754286 8.71872577,16.1657143 Z M16.5112972,13.6274286 C16.9770115,13.9857143 17.0907258,14.1668571 17.3952972,14.1668571 C17.5290115,14.1668571 17.9101543,14.1611429 18.0867258,13.9148571 C18.1718686,13.7954286 18.2050115,13.7188571 18.2181543,13.6777143 C18.1478686,13.6405714 18.0547258,13.5651429 17.5467258,13.5651429 C17.2581543,13.5657143 16.8952972,13.5782857 16.5112972,13.6274286 Z M12.2427258,9.86628571 C11.8341543,11.28 11.2947258,12.8062857 10.7147258,14.1885714 C11.9090115,13.7251429 13.2072972,13.3205714 14.4267258,13.0342857 C13.6552972,12.1382857 12.8844401,11.0194286 12.2427258,9.86628571 Z M11.8958686,5.03085714 C11.8398686,5.04971429 11.1358686,6.03485714 11.9507258,6.86857143 C12.4930115,5.66 11.9204401,5.02285714 11.8958686,5.03085714 Z" id="Shape" fill="#D0021B"></path>
                    <path d="M6.93771429,29.7577143 L6,29.7577143 L6,24 L7.656,24 C7.90057143,24 8.14285714,24.0388571 8.38228571,24.1171429 C8.62171429,24.1954286 8.83657143,24.3125714 9.02685714,24.4685714 C9.21714286,24.6245714 9.37085714,24.8137143 9.488,25.0348571 C9.60514286,25.256 9.664,25.5045714 9.664,25.7811429 C9.664,26.0731429 9.61428571,26.3371429 9.51542857,26.5742857 C9.41657143,26.8114286 9.27828571,27.0108571 9.10114286,27.172 C8.924,27.3331429 8.71028571,27.4582857 8.46057143,27.5468571 C8.21085714,27.6354286 7.93428571,27.6794286 7.63257143,27.6794286 L6.93714286,27.6794286 L6.93714286,29.7577143 L6.93771429,29.7577143 Z M6.93771429,24.7108571 L6.93771429,26.992 L7.79714286,26.992 C7.91142857,26.992 8.02457143,26.9725714 8.13714286,26.9331429 C8.24914286,26.8942857 8.352,26.8302857 8.44571429,26.7417143 C8.53942857,26.6531429 8.61485714,26.5297143 8.672,26.3708571 C8.72914286,26.212 8.75771429,26.0154286 8.75771429,25.7811429 C8.75771429,25.6874286 8.74457143,25.5788571 8.71885714,25.4571429 C8.69257143,25.3348571 8.63942857,25.2177143 8.55885714,25.1057143 C8.47771429,24.9937143 8.36457143,24.9 8.21885714,24.8245714 C8.07314286,24.7491429 7.88,24.7114286 7.64057143,24.7114286 L6.93771429,24.7114286 L6.93771429,24.7108571 Z" id="Shape" fill="#D0021B"></path>
                    <path d="M15.6485714,26.7188571 C15.6485714,27.1925714 15.5977143,27.5977143 15.496,27.9337143 C15.3942857,28.2697143 15.2657143,28.5508571 15.1091429,28.7777143 C14.9525714,29.0045714 14.7771429,29.1828571 14.5817143,29.3131429 C14.3862857,29.4434286 14.1977143,29.5405714 14.0154286,29.6062857 C13.8331429,29.6714286 13.6662857,29.7131429 13.5154286,29.7314286 C13.3645714,29.7485714 13.2525714,29.7577143 13.1794286,29.7577143 L11,29.7577143 L11,24 L12.7342857,24 C13.2188571,24 13.6445714,24.0771429 14.0114286,24.2302857 C14.3782857,24.3834286 14.6834286,24.5885714 14.9257143,24.8434286 C15.168,25.0982857 15.3485714,25.3891429 15.4685714,25.7142857 C15.5885714,26.04 15.6485714,26.3748571 15.6485714,26.7188571 Z M12.8674286,29.0702857 C13.5028571,29.0702857 13.9611429,28.8674286 14.2422857,28.4611429 C14.5234286,28.0548571 14.664,27.4662857 14.664,26.6954286 C14.664,26.456 14.6354286,26.2188571 14.5782857,25.9845714 C14.5205714,25.7502857 14.4102857,25.5382857 14.2462857,25.348 C14.0822857,25.1577143 13.8594286,25.004 13.5782857,24.8868571 C13.2971429,24.7697143 12.9325714,24.7108571 12.4845714,24.7108571 L11.9377143,24.7108571 L11.9377143,29.0702857 L12.8674286,29.0702857 Z" id="Shape" fill="#D0021B"></path>
                    <polygon id="Shape" fill="#D0021B" points="17.9531429 24.7108571 17.9531429 26.5234286 20.3594286 26.5234286 20.3594286 27.164 17.9531429 27.164 17.9531429 29.7577143 17 29.7577143 17 24 20.6011429 24 20.6011429 24.7108571"></polygon>
                </g>
            </g>
        </g>
    </g>
</svg>