<?xml version="1.0" encoding="UTF-8"?>
<svg width="25px" height="32px" viewBox="0 0 25 32" version="1.1" xmlns="http://www.w3.org/2000/svg" xmlns:xlink="http://www.w3.org/1999/xlink">
    <!-- Generator: Sketch 50.2 (55047) - http://www.bohemiancoding.com/sketch -->
    <title>PNG</title>
    <desc>Created with Sketch.</desc>
    <defs></defs>
    <g id="Page-1" stroke="none" stroke-width="1" fill="none" fill-rule="evenodd">
        <g id="Screen-2" transform="translate(-1173.000000, -455.000000)" fill-rule="nonzero">
            <g id="Group-2" transform="translate(1166.000000, 449.000000)">
                <g id="PNG" transform="translate(7.000000, 6.000000)">
                    <path d="M17.7057143,0 L1.12171429,0 C0.66,0 0.285714286,0.374285714 0.285714286,1.10057143 L0.285714286,31.4285714 C0.285714286,31.6257143 0.66,32 1.12171429,32 L24.0211429,32 C24.4828571,32 24.8571429,31.6257143 24.8571429,31.4285714 L24.8571429,7.416 C24.8571429,7.01828571 24.804,6.89028571 24.7102857,6.796 L18.0611429,0.146857143 C17.9668571,0.0531428571 17.8388571,0 17.7057143,0 Z" id="Shape" fill="#FFFFFF" transform="translate(12.571429, 16.000000) scale(-1, 1) translate(-12.571429, -16.000000) "></path>
                    <polygon id="Shape" fill="#D7D7D7" transform="translate(3.827948, 3.385429) scale(-1, 1) translate(-3.827948, -3.385429) " points="0.442519426 0 0.442519426 6.77085714 7.21337657 6.77085714"></polygon>
                    <circle id="Oval" fill="#F8E71C" cx="20.3891429" cy="8.24628571" r="2.61085714"></circle>
                    <path d="M0.288078053,22.2857143 L0.288078053,31.3740082 C0.269276318,31.5258026 0.362638309,31.6685944 0.568164025,31.8023834 C0.773689741,31.9361725 0.935392215,32.0020447 1.05327145,32 L24.0537971,32 C24.256918,31.9691687 24.4277389,31.8942487 24.5662598,31.77524 C24.7047808,31.6562313 24.8025297,31.5004126 24.8595066,31.3077838 L24.8595066,22.2857143 L24.8595066,16 L19.1452209,10.5714286 L13.1452209,17.1428571 L10.0120781,14.0097143 L0.288078053,22.2857143 Z" id="Shape" fill="#67BF06" transform="translate(12.572610, 21.285737) scale(-1, 1) translate(-12.572610, -21.285737) "></path>
                    <g id="Group" transform="translate(5.142857, 24.000000)" fill="#FFFFFF">
                        <path d="M1.36285714,6.28571429 L0.425142857,6.28571429 L0.425142857,0.528 L2.08114286,0.528 C2.32571429,0.528 2.568,0.566857143 2.80742857,0.645142857 C3.04685714,0.723428571 3.26171429,0.840571429 3.452,0.996571429 C3.64228571,1.15257143 3.796,1.34171429 3.91314286,1.56285714 C4.03028571,1.784 4.08914286,2.03257143 4.08914286,2.30914286 C4.08914286,2.60114286 4.03942857,2.86514286 3.94057143,3.10228571 C3.84171429,3.33942857 3.70342857,3.53885714 3.52628571,3.7 C3.34914286,3.86114286 3.13542857,3.98628571 2.88571429,4.07485714 C2.636,4.16342857 2.35942857,4.20742857 2.05771429,4.20742857 L1.36228571,4.20742857 L1.36228571,6.28571429 L1.36285714,6.28571429 Z M1.36285714,1.23885714 L1.36285714,3.52 L2.22228571,3.52 C2.33657143,3.52 2.44971429,3.50057143 2.56228571,3.46114286 C2.67428571,3.42228571 2.77714286,3.35828571 2.87085714,3.26971429 C2.96457143,3.18114286 3.04,3.05771429 3.09714286,2.89885714 C3.15428571,2.74 3.18285714,2.54342857 3.18285714,2.30914286 C3.18285714,2.21542857 3.16971429,2.10685714 3.144,1.98514286 C3.11771429,1.86285714 3.06457143,1.74571429 2.984,1.63371429 C2.90285714,1.52171429 2.78971429,1.428 2.644,1.35257143 C2.49828571,1.27714286 2.30514286,1.23942857 2.06571429,1.23942857 L1.36285714,1.23942857 L1.36285714,1.23885714 Z" id="Shape"></path>
                        <polygon id="Shape" points="9.32342857 0.528 9.32342857 6.28571429 8.37028571 6.28571429 6.11257143 2.31714286 6.11257143 6.28571429 5.15942857 6.28571429 5.15942857 0.528 6.11257143 0.528 8.37028571 4.49657143 8.37028571 0.528"></polygon>
                        <path d="M14.9485714,3.31714286 L14.9485714,5.54342857 C14.8285714,5.69485714 14.6948571,5.81771429 14.5462857,5.91428571 C14.3977143,6.01085714 14.2417143,6.09028571 14.0777143,6.15257143 C13.9137143,6.21485714 13.744,6.25942857 13.5697143,6.28571429 C13.3948571,6.312 13.2222857,6.32457143 13.0502857,6.32457143 C12.7062857,6.32457143 12.3902857,6.26228571 12.1011429,6.13714286 C11.812,6.012 11.5594286,5.82742857 11.3434286,5.58228571 C11.1274286,5.33714286 10.9577143,5.03028571 10.8354286,4.66057143 C10.7131429,4.29085714 10.652,3.86342857 10.652,3.37942857 C10.652,2.89542857 10.7131429,2.46914286 10.8354286,2.10228571 C10.9577143,1.73485714 11.1268571,1.42914286 11.3434286,1.18457143 C11.5594286,0.939428571 11.8131429,0.753714286 12.1051429,0.625714286 C12.3965714,0.497714286 12.712,0.434285714 13.0502857,0.434285714 C13.3628571,0.434285714 13.6542857,0.486285714 13.9251429,0.590285714 C14.196,0.694857143 14.4377143,0.850857143 14.6514286,1.05885714 L14.0028571,1.63714286 C13.8777143,1.48571429 13.7342857,1.37657143 13.5731429,1.30914286 C13.4114286,1.24171429 13.2451429,1.20742857 13.0731429,1.20742857 C12.8805714,1.20742857 12.6965714,1.24342857 12.5222857,1.31657143 C12.3474286,1.38971429 12.1914286,1.51314286 12.0537143,1.68742857 C11.9154286,1.86228571 11.8074286,2.08685714 11.7297143,2.36342857 C11.652,2.64 11.6097143,2.97771429 11.6045714,3.37885714 C11.6097143,3.76971429 11.6502857,4.108 11.7257143,4.39428571 C11.8011429,4.68057143 11.9051429,4.91485714 12.0382857,5.09714286 C12.1714286,5.27942857 12.3222857,5.41485714 12.4914286,5.50342857 C12.6605714,5.592 12.8388571,5.636 13.0268571,5.636 C13.084,5.636 13.1605714,5.632 13.2571429,5.624 C13.3531429,5.616 13.4497143,5.60342857 13.5462857,5.58514286 C13.6422857,5.56685714 13.7348571,5.54228571 13.8234286,5.51085714 C13.912,5.47942857 13.9771429,5.43542857 14.0188571,5.37828571 L14.0188571,3.95657143 L13.0422857,3.95657143 L13.0422857,3.316 L14.9485714,3.316 L14.9485714,3.31714286 Z" id="Shape"></path>
                    </g>
                </g>
            </g>
        </g>
    </g>
</svg>